<svg width="68" height="39" viewBox="0 0 68 39" fill="none" xmlns="http://www.w3.org/2000/svg">
<g clip-path="url(#clip0_4_5)">
<path d="M31.2984 18.3348C33.1524 19.2732 34.6944 21.0372 35.0496 23.1324C35.0244 23.226 33.8544 24.1704 33.6648 24.3264C32.7324 25.0896 31.7172 25.9128 30.7536 26.6304C29.6208 27.474 28.4112 28.2 27.2508 29.0016C27.126 29.0508 27.1476 28.8816 27.174 28.8048C27.2448 28.608 27.7212 28.116 27.8892 27.7824C29.5488 24.4848 28.0596 22.0488 24.5472 21.5184C21.1032 20.9976 16.5816 21.4296 13.8504 23.7576C11.1732 26.04 10.0596 29.6964 8.90644 32.8992L8.97484 33.0096C10.1916 33.03 11.4096 33.012 12.6264 33.0156C17.2752 33.0288 21.4944 33.1692 25.8972 31.3032C31.0944 29.1012 34.6884 24.8256 39.5112 22.14C44.6508 19.2792 49.2996 18.7656 55.1328 18.8724C55.4568 18.8784 56.25 19.0476 56.5044 18.8712C56.6016 18.8028 56.6532 18.588 56.7036 18.4716C57.18 17.3484 57.5448 16.098 57.9756 14.9496C59.7408 10.2336 60.4296 7.03562 66.2784 6.77042C66.726 6.75002 67.182 6.78962 67.6296 6.77282C67.4232 7.61042 67.092 8.44442 66.792 9.26162C64.7784 14.7636 62.7012 20.2392 60.672 25.7352C59.6316 28.5516 58.7196 31.4472 57.6024 34.2324C56.9316 35.9028 55.8528 37.29 54.2124 38.094C52.572 38.898 51.0276 38.8824 49.2516 38.8308L49.1628 38.7408L54.3768 24.726C54.336 24.63 54.2568 24.6372 54.1728 24.6276C53.064 24.4992 51.0768 24.582 49.9104 24.6276C46.4628 24.7644 43.0788 25.8312 40.176 27.6612C36.648 29.886 33.7248 33.0444 30.1536 35.202C26.4756 37.4244 22.1892 38.6364 17.9004 38.8344L0.00243677 38.832C-0.00356323 38.766 3.67671e-05 38.7036 0.0180368 38.6388C0.402037 37.2444 1.25284 35.5128 1.78084 34.1088C3.14164 30.4872 4.30204 26.4924 6.60844 23.3544C9.62044 19.2552 14.3616 16.7004 19.4268 16.242C19.458 16.1004 19.4064 16.146 19.35 16.1076C19.1268 15.9612 18.762 15.8988 18.4896 15.7704C17.7972 15.444 17.4468 15.1164 16.9704 14.532C16.8552 14.3904 16.464 13.6752 16.3104 13.7844C16.3176 13.8732 16.1364 14.3784 16.0104 14.2632C15.408 11.982 16.1772 9.60122 18.0192 8.15162C18.0852 8.39522 17.8488 8.67002 17.766 8.91722C16.9812 11.2524 17.8896 14.1468 20.7204 14.0868C22.332 14.0532 23.4588 12.4188 24.9768 12.5232C26.3424 12.618 26.5656 14.4204 28.1844 14.1168C28.7832 14.004 29.868 13.0548 29.9184 12.4284C29.9472 12.0732 28.746 10.7496 28.842 10.668C29.6304 10.6812 30.4152 11.2956 31.1784 10.7544C31.1712 10.6428 31.0944 10.5684 31.0308 10.4868C30.018 9.17522 28.8492 8.90042 27.7308 7.97282C27.0264 7.38842 27.0936 6.60122 26.5044 6.08282C24.5424 4.35722 21.1476 4.59122 18.9324 3.22442C18.6828 3.07082 17.8068 2.33282 17.6604 2.33162C17.4444 2.33042 17.1072 2.96282 17.0496 3.16562C16.8816 3.74882 16.962 4.49762 17.2476 5.02802C17.3364 5.19482 17.9532 5.84762 17.8704 5.93282C17.0412 5.86562 16.41 5.52722 15.8388 4.93802C15.7092 4.80482 15.6252 4.51802 15.4404 4.49282C13.2396 4.83482 10.566 5.00522 8.60764 3.77762C7.39444 3.01682 6.37084 1.64642 6.19084 0.195621C6.18244 0.124821 6.16924 0.0756207 6.23884 0.0276207L26.3544 0.0012207C28.4472 0.228021 30.6264 0.542421 32.514 1.51442C39.2808 4.99922 37.878 15.3 31.3632 18.1896L31.3008 18.336L31.2984 18.3348ZM27.9408 15.3996C27.5316 15.5052 27.0252 15.7692 26.5956 15.7608C26.0928 15.7512 25.5024 15.4248 25.02 15.354C24.5652 15.288 23.8404 15.5256 23.3868 15.6696C23.2728 15.7056 22.428 15.9768 22.428 16.0284C22.8576 16.2384 23.3448 16.2852 23.7876 16.4664C24.4524 16.7388 25.278 17.508 25.9908 17.4984C26.9712 17.4852 27.8712 16.3164 27.942 15.3996H27.9408Z" fill="black"/>
<path d="M37.1136 21.8101C37.044 21.7297 37.3632 21.0865 37.4136 20.9425C38.508 17.8669 39.5748 14.6269 40.7844 11.6077C41.4756 9.88205 42.3912 8.52725 44.0664 7.63685C45.7416 6.74645 47.3868 6.79565 49.1664 6.79565C49.2828 6.87485 49.1892 7.10045 49.1592 7.21445C48.9636 7.93445 48.5544 8.75165 48.2964 9.46685C47.2344 12.4093 46.2384 15.3745 45.0564 18.2725C43.0044 18.8029 41.028 19.5829 39.1728 20.6005L37.1148 21.8089L37.1136 21.8101Z" fill="black"/>
<path d="M41.13 28.9416L37.5852 38.82L30.6984 38.8272L31.9536 35.8584C35.0148 33.9492 37.5816 30.99 40.656 29.1564C40.7364 29.1084 41.0688 28.8828 41.13 28.9416Z" fill="black"/>
<path d="M15.8304 7.49034L14.5452 8.87154C13.2 10.7015 12.3324 12.7031 12.2904 15.0071C12.2796 15.5795 12.3588 16.1387 12.3432 16.7087C9.96357 17.7719 8.00157 19.3943 6.23877 21.2723C6.65517 20.0459 7.10277 18.8135 7.57197 17.6015C9.19677 13.4003 10.4544 10.3187 14.6016 8.02914C14.9736 7.82394 15.4212 7.57794 15.8292 7.48914L15.8304 7.49034Z" fill="black"/>
<path d="M24.2532 11.2644C24.2772 11.268 24.4248 11.3232 24.4032 11.3832C23.064 11.736 21.5544 12.7272 20.1876 11.9124C18.8208 11.0976 19.0176 9.46203 19.638 8.26803C19.7772 8.24523 19.7172 8.33043 19.7268 8.41803C19.8504 9.53763 20.2644 10.4532 21.3648 10.9164C21.5412 10.9908 22.4928 11.2644 22.6356 11.2644C23.112 11.2644 23.8128 11.2032 24.2544 11.2644H24.2532Z" fill="black"/>
<path d="M25.9885 8.54274C26.1649 8.72874 26.3917 8.85114 26.5009 9.10674C26.4157 9.17154 25.8361 8.90274 25.6873 8.87154C24.6505 8.65914 23.8189 8.91114 22.9849 8.06754C22.8817 7.96314 22.8013 7.78554 22.6945 7.66914C22.6141 7.58034 21.9901 7.02714 22.0645 6.95154C23.1337 7.11474 24.3193 7.02714 25.2097 7.73154C25.4989 7.96074 25.7353 8.27874 25.9873 8.54394L25.9885 8.54274Z" fill="black"/>
</g>
<defs>
<clipPath id="clip0_4_5">
<rect width="67.6284" height="38.8488" fill="white"/>
</clipPath>
</defs>
</svg>
